<?xml version="1.0" standalone="no"?>
<!DOCTYPE svg PUBLIC "-//W3C//DTD SVG 20010904//EN"
 "http://www.w3.org/TR/2001/REC-SVG-20010904/DTD/svg10.dtd">
<svg version="1.0" xmlns="http://www.w3.org/2000/svg"
 width="615.000000pt" height="615.000000pt" viewBox="0 0 615.000000 615.000000"
 preserveAspectRatio="xMidYMid meet">
<metadata>
Created by potrace 1.11, written by Peter Selinger 2001-2013
</metadata>
<g transform="translate(0.000000,615.000000) scale(0.100000,-0.100000)"
fill="#000000" stroke="none">
<path d="M2898 5759 c-31 -4 -74 -15 -95 -24 -66 -28 -116 -43 -168 -50 -27
-4 -63 -13 -80 -20 -16 -7 -69 -15 -117 -18 -47 -3 -92 -8 -100 -13 -7 -5 -24
-10 -38 -12 -14 -2 -61 -18 -106 -36 -77 -31 -145 -74 -246 -154 -26 -20 -96
-66 -155 -102 -141 -84 -210 -150 -281 -269 -31 -53 -76 -120 -100 -149 -23
-30 -50 -71 -59 -93 -8 -21 -19 -39 -23 -39 -10 0 -26 -49 -35 -105 -3 -22
-17 -74 -30 -115 -56 -169 -101 -362 -90 -379 3 -5 -1 -15 -8 -23 -31 -32 -67
-211 -62 -307 2 -36 10 -102 18 -146 10 -51 12 -88 6 -103 -5 -13 -9 -38 -9
-56 0 -19 -26 -93 -59 -167 -32 -74 -74 -177 -94 -229 -53 -142 -126 -320
-147 -360 -27 -52 -30 -97 -8 -162 29 -84 57 -104 157 -111 93 -6 162 -35 195
-80 27 -37 27 -111 2 -191 l-20 -59 41 -38 c38 -35 40 -41 36 -81 -6 -59 19
-101 92 -152 77 -54 85 -76 52 -147 -39 -82 -50 -135 -51 -239 0 -84 2 -101
26 -145 29 -54 102 -129 159 -164 64 -37 149 -61 278 -76 150 -19 195 -32 275
-85 72 -47 110 -85 159 -160 32 -49 87 -184 87 -215 0 -6 -24 -22 -52 -35
-152 -67 -200 -92 -273 -144 -123 -89 -274 -244 -360 -371 -25 -38 -27 -55
-10 -100 l8 -20 -17 20 c-16 20 -16 20 -31 1 -8 -11 -15 -23 -15 -28 0 -4 351
-8 780 -8 l780 0 42 47 c133 149 290 288 314 279 9 -4 41 12 77 39 34 24 90
65 125 90 35 25 60 50 57 55 -18 30 411 230 610 284 33 9 133 25 222 35 l162
18 53 51 c29 27 69 63 88 78 19 16 37 31 40 34 28 32 136 110 146 106 40 -15
4 36 -100 144 -63 64 -186 224 -186 240 0 5 -6 15 -12 22 -21 22 -55 91 -84
164 -37 97 -40 242 -6 327 13 31 29 63 35 70 7 6 25 32 40 56 16 24 69 84 118
133 98 98 131 143 166 233 44 109 65 149 110 210 66 87 110 181 132 282 11 48
34 149 51 223 31 133 32 137 24 300 -4 91 -6 239 -5 329 3 207 -23 365 -70
425 -11 14 -22 38 -25 53 -3 14 -7 30 -9 33 -3 4 -21 61 -41 126 -39 132 -75
207 -144 304 -25 36 -66 102 -90 147 -24 46 -52 85 -62 89 -10 3 -18 11 -18
17 0 7 -25 49 -55 94 -57 83 -124 153 -148 153 -8 0 -19 11 -25 25 -11 25 -85
78 -112 80 -8 1 -24 6 -35 12 -18 9 -55 21 -195 64 -19 6 -92 45 -162 86 -141
83 -230 122 -352 155 -70 19 -108 22 -286 23 -113 1 -211 5 -218 9 -7 4 -12 2
-12 -4 0 -7 -7 -9 -17 -6 -28 11 -214 36 -258 35 -22 -1 -66 -5 -97 -10z m258
-5624 c-1 -8 -5 -17 -8 -21 -5 -4 -4 16 1 34 3 9 9 -1 7 -13z m-1469 -12 c-14
-14 -19 -15 -29 -4 -11 10 -10 11 3 6 10 -4 20 -2 24 4 3 6 9 11 13 11 3 0 -1
-8 -11 -17z m-52 -12 c3 -5 2 -12 -3 -15 -5 -3 -9 1 -9 9 0 17 3 19 12 6z m56
-14 c-6 -8 -7 -18 -3 -22 4 -5 1 -5 -6 -1 -10 6 -10 11 -1 22 6 8 14 14 16 14
3 0 0 -6 -6 -13z m523 -3 c3 -8 2 -12 -4 -9 -6 3 -10 10 -10 16 0 14 7 11 14
-7z m-557 -9 c0 -8 -4 -12 -9 -9 -5 3 -6 10 -3 15 9 13 12 11 12 -6z m1478
-24 c-9 -8 -36 -10 -30 -2 2 4 11 8 20 8 8 0 13 -3 10 -6z m-915 -11 c0 -5 -2
-10 -4 -10 -3 0 -8 5 -11 10 -3 6 -1 10 4 10 6 0 11 -4 11 -10z"/>
</g>
</svg>
